<mxfile host="app.diagrams.net" modified="2023-11-07T19:45:31.140Z" agent="Mozilla/5.0 (X11; Ubuntu; Linux x86_64; rv:109.0) Gecko/20100101 Firefox/119.0" version="22.0.8" etag="adscrXoGozY2SO1xM54w" type="github">
  <diagram name="Page-1" id="UqawkrZfoFJtnCer4xaA">
    <mxGraphModel>
      <root>
        <mxCell id="0" />
        <mxCell id="1" parent="0" />
      </root>
    </mxGraphModel>
  </diagram>
</mxfile>
